HIERARCHY
ROOT Hips
{
    OFFSET 0.000000 0.000000 0.000000
    CHANNELS 6 Xposition Yposition Zposition Zrotation Xrotation Yrotation
    JOINT Spine
    {
        OFFSET -0.000000 7.305679 0.000000
        CHANNELS 3 Zrotation Xrotation Yrotation
        JOINT Spine1
        {
            OFFSET -0.000000 20.356625 0.000000
            CHANNELS 3 Zrotation Xrotation Yrotation
            JOINT Neck
            {
                OFFSET -0.000000 22.138498 0.000000
                CHANNELS 3 Zrotation Xrotation Yrotation
                JOINT Head
                {
                    OFFSET -0.000000 13.809516 1.781873
                    CHANNELS 3 Zrotation Xrotation Yrotation
                    End Site
                    {
                        OFFSET -0.000000 17.818729 0.000000
                    }
                }
            }
            JOINT LeftShoulder
            {
                OFFSET 3.599131 17.989975 0.023592
                CHANNELS 3 Zrotation Xrotation Yrotation
                JOINT LeftArm
                {
                    OFFSET 12.560995 0.000000 0.000000
                    CHANNELS 3 Zrotation Xrotation Yrotation
                    JOINT LeftForeArm
                    {
                        OFFSET 22.903347 0.000000 0.000000
                        CHANNELS 3 Zrotation Xrotation Yrotation
                        JOINT LeftHand
                        {
                            OFFSET 21.865294 0.000000 0.000000
                            CHANNELS 3 Zrotation Xrotation Yrotation
                            JOINT LeftHandThumb1
                            {
                                OFFSET 1.853706 -2.106484 2.949078
                                CHANNELS 3 Zrotation Xrotation Yrotation
                                JOINT LeftHandThumb2
                                {
                                    OFFSET 2.049154 0.000000 1.336405
                                    CHANNELS 3 Zrotation Xrotation Yrotation
                                    JOINT LeftHandThumb3
                                    {
                                        OFFSET 2.672809 0.000000 0.000000
                                        CHANNELS 3 Zrotation Xrotation Yrotation
                                        End Site
                                        {
                                            OFFSET 2.381303 0.000000 0.000000
                                        }
                                    }
                                }
                            }
                            JOINT LeftHandIndex1
                            {
                                OFFSET 7.583345 0.000000 2.949078
                                CHANNELS 3 Zrotation Xrotation Yrotation
                                JOINT LeftHandIndex2
                                {
                                    OFFSET 4.454682 0.000000 0.000000
                                    CHANNELS 3 Zrotation Xrotation Yrotation
                                    JOINT LeftHandIndex3
                                    {
                                        OFFSET 2.227341 0.000000 0.000000
                                        CHANNELS 3 Zrotation Xrotation Yrotation
                                        End Site
                                        {
                                            OFFSET 1.984419 0.000000 0.000000
                                        }
                                    }
                                }
                            }
                            JOINT LeftHandMiddle1
                            {
                                OFFSET 7.583345 0.000000 0.977409
                                CHANNELS 3 Zrotation Xrotation Yrotation
                                JOINT LeftHandMiddle2
                                {
                                    OFFSET 4.900151 0.000000 0.000000
                                    CHANNELS 3 Zrotation Xrotation Yrotation
                                    JOINT LeftHandMiddle3
                                    {
                                        OFFSET 2.672809 0.000000 0.000000
                                        CHANNELS 3 Zrotation Xrotation Yrotation
                                        End Site
                                        {
                                            OFFSET 2.381303 0.000000 0.000000
                                        }
                                    }
                                }
                            }
                            JOINT LeftHandRing1
                            {
                                OFFSET 7.162047 0.000000 -0.977409
                                CHANNELS 3 Zrotation Xrotation Yrotation
                                JOINT LeftHandRing2
                                {
                                    OFFSET 4.454682 0.000000 0.000000
                                    CHANNELS 3 Zrotation Xrotation Yrotation
                                    JOINT LeftHandRing3
                                    {
                                        OFFSET 2.227341 0.000000 0.000000
                                        CHANNELS 3 Zrotation Xrotation Yrotation
                                        End Site
                                        {
                                            OFFSET 1.984419 0.000000 0.000000
                                        }
                                    }
                                }
                            }
                            JOINT LeftHandPinky1
                            {
                                OFFSET 6.740750 0.000000 -2.949078
                                CHANNELS 3 Zrotation Xrotation Yrotation
                                JOINT LeftHandPinky2
                                {
                                    OFFSET 3.563746 0.000000 0.000000
                                    CHANNELS 3 Zrotation Xrotation Yrotation
                                    JOINT LeftHandPinky3
                                    {
                                        OFFSET 1.781873 0.000000 0.000000
                                        CHANNELS 3 Zrotation Xrotation Yrotation
                                        End Site
                                        {
                                            OFFSET 1.587536 0.000000 0.000000
                                        }
                                    }
                                }
                            }
                        }
                    }
                }
            }
            JOINT RightShoulder
            {
                OFFSET -3.506995 17.989975 0.023592
                CHANNELS 3 Zrotation Xrotation Yrotation
                JOINT RightArm
                {
                    OFFSET -12.560995 0.000000 0.000000
                    CHANNELS 3 Zrotation Xrotation Yrotation
                    JOINT RightForeArm
                    {
                        OFFSET -22.903347 0.000000 0.000000
                        CHANNELS 3 Zrotation Xrotation Yrotation
                        JOINT RightHand
                        {
                            OFFSET -21.865294 0.000000 0.000000
                            CHANNELS 3 Zrotation Xrotation Yrotation
                            JOINT RightHandThumb1
                            {
                                OFFSET -1.853706 -2.106484 2.949078
                                CHANNELS 3 Zrotation Xrotation Yrotation
                                JOINT RightHandThumb2
                                {
                                    OFFSET -2.049154 0.000000 1.336405
                                    CHANNELS 3 Zrotation Xrotation Yrotation
                                    JOINT RightHandThumb3
                                    {
                                        OFFSET -2.672809 0.000000 0.000000
                                        CHANNELS 3 Zrotation Xrotation Yrotation
                                        End Site
                                        {
                                            OFFSET -2.381303 0.000000 0.000000
                                        }
                                    }
                                }
                            }
                            JOINT RightHandIndex1
                            {
                                OFFSET -7.583345 0.000000 2.949078
                                CHANNELS 3 Zrotation Xrotation Yrotation
                                JOINT RightHandIndex2
                                {
                                    OFFSET -4.454682 0.000000 0.000000
                                    CHANNELS 3 Zrotation Xrotation Yrotation
                                    JOINT RightHandIndex3
                                    {
                                        OFFSET -2.227341 0.000000 0.000000
                                        CHANNELS 3 Zrotation Xrotation Yrotation
                                        End Site
                                        {
                                            OFFSET -1.984419 0.000000 0.000000
                                        }
                                    }
                                }
                            }
                            JOINT RightHandMiddle1
                            {
                                OFFSET -7.583345 0.000000 0.977409
                                CHANNELS 3 Zrotation Xrotation Yrotation
                                JOINT RightHandMiddle2
                                {
                                    OFFSET -4.900151 0.000000 0.000000
                                    CHANNELS 3 Zrotation Xrotation Yrotation
                                    JOINT RightHandMiddle3
                                    {
                                        OFFSET -2.672809 0.000000 0.000000
                                        CHANNELS 3 Zrotation Xrotation Yrotation
                                        End Site
                                        {
                                            OFFSET -2.381303 0.000000 0.000000
                                        }
                                    }
                                }
                            }
                            JOINT RightHandRing1
                            {
                                OFFSET -7.162047 0.000000 -0.977409
                                CHANNELS 3 Zrotation Xrotation Yrotation
                                JOINT RightHandRing2
                                {
                                    OFFSET -4.454682 0.000000 0.000000
                                    CHANNELS 3 Zrotation Xrotation Yrotation
                                    JOINT RightHandRing3
                                    {
                                        OFFSET -2.227341 0.000000 0.000000
                                        CHANNELS 3 Zrotation Xrotation Yrotation
                                        End Site
                                        {
                                            OFFSET -1.984419 0.000000 0.000000
                                        }
                                    }
                                }
                            }
                            JOINT RightHandPinky1
                            {
                                OFFSET -6.740750 0.000000 -2.949078
                                CHANNELS 3 Zrotation Xrotation Yrotation
                                JOINT RightHandPinky2
                                {
                                    OFFSET -3.563746 0.000000 0.000000
                                    CHANNELS 3 Zrotation Xrotation Yrotation
                                    JOINT RightHandPinky3
                                    {
                                        OFFSET -1.781873 0.000000 0.000000
                                        CHANNELS 3 Zrotation Xrotation Yrotation
                                        End Site
                                        {
                                            OFFSET -1.587536 0.000000 0.000000
                                        }
                                    }
                                }
                            }
                        }
                    }
                }
            }
        }
    }
    JOINT LeftUpLeg
    {
        OFFSET 8.909365 0.000000 0.000000
        CHANNELS 3 Zrotation Xrotation Yrotation
        JOINT LeftLeg
        {
            OFFSET -0.000000 -38.765560 0.000000
            CHANNELS 3 Zrotation Xrotation Yrotation
            JOINT LeftFoot
            {
                OFFSET -0.000000 -35.244961 0.000000
                CHANNELS 3 Zrotation Xrotation Yrotation
                JOINT LeftToeBase
                {
                    OFFSET -0.000000 -5.791087 13.364048
                    CHANNELS 3 Zrotation Xrotation Yrotation
                    End Site
                    {
                        OFFSET -0.000000 0.000000 3.563746
                    }
                }
            }
        }
    }
    JOINT RightUpLeg
    {
        OFFSET -8.909365 0.000000 0.000000
        CHANNELS 3 Zrotation Xrotation Yrotation
        JOINT RightLeg
        {
            OFFSET -0.000000 -38.765560 0.000000
            CHANNELS 3 Zrotation Xrotation Yrotation
            JOINT RightFoot
            {
                OFFSET -0.000000 -35.244961 0.000000
                CHANNELS 3 Zrotation Xrotation Yrotation
                JOINT RightToeBase
                {
                    OFFSET -0.000000 -5.791087 13.364048
                    CHANNELS 3 Zrotation Xrotation Yrotation
                    End Site
                    {
                        OFFSET -0.000000 0.000000 3.563746
                    }
                }
            }
        }
    }
}
MOTION
Frames:    4
Frame Time:    0.008333
-10.607713    81.342476    109.754669    1.537811    0.299082    -2.026620    0.336542    2.804012    0.212815    -3.611580    2.829919    0.162794    2.152832    -6.042266    -2.220328    1.702446    -1.665627    -2.318754    2.973276    2.550599    -12.134771    -88.242340    29.243916    -1.323614    10.419288    -5.806291    0.682023    2.310096    -30.008278    11.535180    -0.583893    0.360202    -0.295413    -0.000000    0.000000    0.096782    -0.000000    0.000000    0.193564    -18.946621    2.471894    -7.160935    -38.202629    0.000000    0.000000    -19.101315    0.000000    0.000000    -26.458050    -0.540436    -0.966603    -52.935802    0.000000    0.000000    -26.467901    0.000000    0.000000    -33.620255    -4.319388    4.796685    -67.668961    0.000000    0.000000    -33.834484    0.000000    0.000000    -40.623940    -8.914821    10.239989    -82.848618    0.000000    0.000000    -41.424301    0.000000    0.000000    -4.409918    -3.033265    1.775057    99.583504    57.475098    -10.986962    -11.666084    -28.318497    2.605134    7.986352    -40.092350    -5.086553    0.903964    -2.981903    5.279278    0.000000    0.000000    0.000000    0.000000    0.000000    0.000000    19.534866    0.000000    -0.000000    39.069736    0.000000    -0.000000    19.534866    0.000000    -0.000000    25.885715    -0.775259    -1.223968    51.793488    0.000000    -0.000000    25.896755    0.000000    -0.000000    32.220592    -1.680991    -2.355026    64.517273    0.000000    -0.000000    32.258636    0.000000    -0.000000    38.731785    -2.738614    -3.409137    77.626595    0.000000    -0.000000    38.813297    0.000000    -0.000000    -3.895334    -9.202961    -2.774751    -0.017353    16.250544    11.632600    -3.935320    -8.483955    -8.346117    0.644983    2.919621    -1.188586    0.787878    -7.829050    -1.406672    -0.441592    17.529121    -1.615836    -0.712714    -10.375759    3.165111    -0.285748    -0.890424    0.361794    
-10.673058    81.328049    109.719681    1.510568    0.269256    -1.919014    0.325333    2.905257    0.179783    -3.572551    2.812750    0.150031    2.150558    -6.071929    -2.240266    1.696761    -1.693215    -2.339048    2.994309    2.516310    -12.164038    -88.289017    29.308374    -1.315395    10.470824    -6.053106    0.575583    2.358201    -30.058264    11.605824    -0.591419    0.337010    -0.332547    -0.000000    0.000000    0.053274    -0.000000    0.000000    0.106548    -18.929281    2.455248    -7.120179    -38.164124    0.000000    0.000000    -19.082058    0.000000    0.000000    -26.446047    -0.553034    -0.939450    -52.912231    0.000000    0.000000    -26.456110    0.000000    0.000000    -33.614964    -4.326838    4.810523    -67.660339    0.000000    0.000000    -33.830158    0.000000    0.000000    -40.627174    -8.916025    10.240186    -82.855339    0.000000    0.000000    -41.427670    0.000000    0.000000    -4.462819    -3.010624    1.758592    99.638367    57.514381    -11.026450    -11.652413    -28.473444    2.662479    7.994493    -40.119808    -5.134428    0.919986    -3.024121    5.356334    0.000000    0.000000    0.000000    0.000000    0.000000    0.000000    19.585646    0.000000    -0.000000    39.171288    0.000000    -0.000000    19.585646    0.000000    -0.000000    25.916145    -0.773647    -1.220966    51.854252    0.000000    -0.000000    25.927122    0.000000    -0.000000    32.230747    -1.677045    -2.349538    64.537209    0.000000    -0.000000    32.268616    0.000000    -0.000000    38.721127    -2.731616    -3.401747    77.604507    0.000000    -0.000000    38.802250    0.000000    -0.000000    -3.788624    -9.583069    -2.798963    -0.152123    17.086969    11.429956    -3.782776    -9.043067    -7.785040    0.628413    2.874505    -1.155517    0.849830    -7.673434    -1.282194    -0.363933    17.251347    -1.744731    -0.781379    -10.241264    3.053978    -0.287518    -0.866857    0.366941    
-10.737821    81.312927    109.686172    1.478898    0.236374    -1.811045    0.315308    3.004215    0.144399    -3.528534    2.801749    0.137746    2.149948    -6.100452    -2.259455    1.690276    -1.720174    -2.358324    3.011871    2.479870    -12.194438    -88.332626    29.373869    -1.311317    10.515387    -6.258934    0.472035    2.409143    -30.099579    11.665509    -0.597838    0.323335    -0.356908    -0.000000    0.000000    0.022844    -0.000000    0.000000    0.045687    -18.910044    2.439593    -7.082940    -38.122101    0.000000    0.000000    -19.061052    0.000000    0.000000    -26.432320    -0.564401    -0.914976    -52.885132    0.000000    0.000000    -26.442568    0.000000    0.000000    -33.608059    -4.332939    4.822533    -67.648155    0.000000    0.000000    -33.824074    0.000000    0.000000    -40.628857    -8.915874    10.239424    -82.858536    0.000000    0.000000    -41.429268    0.000000    0.000000    -4.510524    -2.988419    1.743242    99.683411    57.539036    -11.065700    -11.641933    -28.631815    2.721442    8.009242    -40.153294    -5.177375    0.934871    -3.057049    5.418215    0.000000    0.000000    0.000000    0.000000    0.000000    0.000000    19.632504    0.000000    -0.000000    39.265007    0.000000    -0.000000    19.632504    0.000000    -0.000000    25.942240    -0.771784    -1.217795    51.906319    0.000000    -0.000000    25.953165    0.000000    -0.000000    32.236160    -1.672576    -2.343745    64.547630    0.000000    -0.000000    32.273815    0.000000    -0.000000    38.705292    -2.723793    -3.393950    77.572006    0.000000    -0.000000    38.786007    0.000000    -0.000000    -3.681141    -9.953015    -2.817716    -0.276504    17.923779    11.205199    -3.624472    -9.621457    -7.167155    0.611624    2.823088    -1.122709    0.912168    -7.512050    -1.171967    -0.285036    16.970942    -1.915035    -0.837934    -10.110027    2.999560    -0.290219    -0.840801    0.373806    
-10.801305    81.296936    109.655464    1.439716    0.198187    -1.704522    0.306952    3.099218    0.108312    -3.475885    2.800629    0.123964    2.152971    -6.125174    -2.277159    1.681668    -1.746356    -2.375523    3.023237    2.440036    -12.226145    -88.372360    29.442249    -1.313487    10.550549    -6.394781    0.374382    2.465047    -30.123648    11.707102    -0.601919    0.324443    -0.360665    -0.000000    0.000000    0.013905    -0.000000    0.000000    0.027809    -18.887386    2.425395    -7.051161    -38.073681    0.000000    0.000000    -19.036840    0.000000    0.000000    -26.415113    -0.573347    -0.895369    -52.851009    0.000000    0.000000    -26.425507    0.000000    0.000000    -33.597668    -4.335733    4.830371    -67.628334    0.000000    0.000000    -33.814171    0.000000    0.000000    -40.627029    -8.911596    10.235299    -82.853470    0.000000    0.000000    -41.426735    0.000000    0.000000    -4.549214    -2.967904    1.730385    99.712303    57.537277    -11.105601    -11.636611    -28.792280    2.782369    8.035213    -40.196053    -5.209980    0.947974    -3.075666    5.456677    0.000000    0.000000    0.000000    0.000000    0.000000    0.000000    19.672045    0.000000    -0.000000    39.344090    0.000000    -0.000000    19.672045    0.000000    -0.000000    25.961029    -0.769642    -1.214526    51.943745    0.000000    -0.000000    25.971872    0.000000    -0.000000    32.234272    -1.667538    -2.337785    64.543404    0.000000    -0.000000    32.271702    0.000000    -0.000000    38.682171    -2.715100    -3.385944    77.524872    0.000000    -0.000000    38.762436    0.000000    -0.000000    -3.571908    -10.304821    -2.825664    -0.382257    18.764292    10.951857    -3.459005    -10.233397    -6.470460    0.594904    2.761682    -1.091314    0.974856    -7.342310    -1.087117    -0.203264    16.689772    -2.149617    -0.874826    -9.986259    3.037943    -0.294258    -0.810809    0.383177    
